<svg aria-hidden="true" style="position:absolute;width:0;height:0;overflow:hidden" xmlns="http://www.w3.org/2000/svg">
  <defs>
    <symbol id="icon-tiktok" viewBox="0 0 32 32">
      <path fill="#519484" style="fill:var(--color1, #519484)" d="M4 0h24a4 4 0 0 1 4 4v24a4 4 0 0 1-4 4H4a4 4 0 0 1-4-4V4a4 4 0 0 1 4-4z"/>
      <path fill="#fff" style="fill:var(--color2, #fff)" d="M13.881 26.106a6.427 6.427 0 0 1-4.566-1.87 6.283 6.283 0 0 1-1.881-4.921 6.347 6.347 0 0 1 1.596-3.817 6.424 6.424 0 0 1 4.852-2.17c.321 0 .648.024.97.072a.35.35 0 0 1 .299.346v3.235a.352.352 0 0 1-.46.333 2.56 2.56 0 0 0-.799-.129c-.687 0-1.331.269-1.812.758a2.509 2.509 0 0 0-.727 1.813 2.52 2.52 0 0 0 1.239 2.135 2.535 2.535 0 0 0 2.099.231 2.528 2.528 0 0 0 1.741-2.403l.004-13.474a.35.35 0 0 1 .35-.35h3.186a.35.35 0 0 1 .35.347 4.58 4.58 0 0 0 4.57 4.539.352.352 0 0 1 .374.349v3.172a.35.35 0 0 1-.35.35h-.003a8.404 8.404 0 0 1-4.586-1.352l.015 6.443a6.312 6.312 0 0 1-1.893 4.494 6.424 6.424 0 0 1-3.597 1.799 6.715 6.715 0 0 1-.97.071z"/>
      <path fill="#519484" style="fill:var(--color1, #519484)" d="M27.661 31.754H4.338a4.097 4.097 0 0 1-4.093-4.093V4.338A4.097 4.097 0 0 1 4.338.245h23.323a4.097 4.097 0 0 1 4.093 4.093v23.323a4.097 4.097 0 0 1-4.093 4.093zM4.338.946A3.397 3.397 0 0 0 .945 4.339v23.323a3.397 3.397 0 0 0 3.393 3.393h23.323a3.397 3.397 0 0 0 3.393-3.393V4.339A3.397 3.397 0 0 0 27.661.946H4.338z"/>
    </symbol>
    <symbol id="icon-facebook" viewBox="0 0 17 32">
      <path fill="#519484" style="fill:var(--color1, #519484)" d="M11.163 30.684V16.876h4.472l.73-6.137h-5.202V7.75c0-1.58.043-3.148 2.398-3.148h2.386V.214c0-.066-2.049-.215-4.122-.215-4.33 0-7.041 2.542-7.041 7.211v3.529H0v6.137h4.784v13.808h6.379z"/>
    </symbol>
    <symbol id="icon-youtube" viewBox="0 0 31 32">
      <path fill="#519484" style="fill:var(--color1, #519484)" d="M6.667.208H24a6.667 6.667 0 0 1 6.667 6.667v17.333A6.667 6.667 0 0 1 24 30.875H6.667A6.667 6.667 0 0 1 0 24.208V6.875A6.667 6.667 0 0 1 6.667.208z"/>
      <path fill="#fafafa" style="fill:var(--color3, #fafafa)" d="M9.333 22.539V6.875l13.725 7.832-13.725 7.832z"/>
    </symbol>
    <symbol id="icon-instagram" viewBox="0 0 33 32">
      <path fill="#519484" style="fill:var(--color1, #519484)" d="M23.698 0H9.033C4.053 0 .001 3.854.001 8.59v13.947c0 4.737 4.052 8.59 9.032 8.59h14.665c4.981 0 9.033-3.853 9.033-8.59V8.59c0-4.736-4.052-8.59-9.033-8.59zm6.128 22.537c0 3.214-2.749 5.828-6.129 5.828H9.031c-3.379 0-6.128-2.614-6.128-5.828V8.59c0-3.214 2.749-5.828 6.128-5.828h14.665c3.379 0 6.129 2.615 6.129 5.828v13.947z"/>
      <path fill="#519484" style="fill:var(--color1, #519484)" d="M16.365 7.544c-4.65 0-8.434 3.598-8.434 8.02s3.783 8.02 8.434 8.02 8.434-3.597 8.434-8.02c0-4.422-3.783-8.02-8.434-8.02zm0 13.278c-3.049 0-5.53-2.359-5.53-5.258s2.481-5.258 5.53-5.258c3.049 0 5.53 2.359 5.53 5.258s-2.481 5.258-5.53 5.258zM25.152 5.201c-.559 0-1.109.215-1.504.593a1.988 1.988 0 0 0-.625 1.433c0 .532.229 1.055.625 1.433a2.202 2.202 0 0 0 3.01 0 1.99 1.99 0 0 0 .623-1.433 1.99 1.99 0 0 0-.623-1.433 2.194 2.194 0 0 0-1.506-.593z"/>
    </symbol>
    <symbol id="icon-eattime" viewBox="0 0 32 32">
      <path fill="#eaffe2" style="fill:var(--color4, #eaffe2)" d="M30.667 16.667C30.667 25.135 23.802 32 15.334 32S.001 25.135.001 16.667 6.866 1.334 15.334 1.334s15.333 6.865 15.333 15.333z"/>
      <path fill="#519484" style="fill:var(--color1, #519484)" d="M16.667 30.667c2.786.002 5.52-.756 7.906-2.195a.51.51 0 1 0-.529-.875A14.312 14.312 0 1 1 11.737 1.896a.511.511 0 0 0-.352-.96C4.402 3.494.262 10.694 1.563 18.016s7.668 12.655 15.104 12.651zM21.597 1.896a14.318 14.318 0 0 1 7.24 20.973.513.513 0 0 0 .418.78.511.511 0 0 0 .45-.242A15.339 15.339 0 0 0 21.948.935a.511.511 0 0 0-.352.96z"/>
      <path fill="#519484" style="fill:var(--color1, #519484)" d="M14.622 9.497v4.319a2.534 2.534 0 0 0 1.672 4.038l11.214 11.213a1.023 1.023 0 0 0 1.446 0c1.601-1.601.655-3.68-3.614-7.951l-2.169-2.169h-.004l-3.984-3.987a2.54 2.54 0 0 0-.473-1.145v-4.32a2.548 2.548 0 0 0 1.533-2.34V1.533a1.497 1.497 0 0 0-.53-1.154 1.514 1.514 0 0 0-2.026.02A1.503 1.503 0 0 0 16.648 0c-.373.008-.731.15-1.008.399A1.509 1.509 0 0 0 13.629.37a1.51 1.51 0 0 0-.541 1.164v5.622a2.55 2.55 0 0 0 1.533 2.341zm6.021 11.254-3.047-3.046a2.555 2.555 0 0 0 1.444-1.444l3.044 3.049-1.441 1.441zm-2.954-7.756a2.518 2.518 0 0 0-2.044 0V9.712h2.044v3.283zm-2.556 2.338a1.533 1.533 0 1 1 3.065 0 1.533 1.533 0 0 1-3.065 0zm13.099 13.011-6.866-6.867 1.445-1.445 1.807 1.807c5.06 5.06 4.155 5.966 3.614 6.505zM14.111 1.533a.507.507 0 0 1 .186-.389.503.503 0 0 1 .69.035.494.494 0 0 1 .147.355v4.089a.511.511 0 0 0 1.022 0V1.534a.52.52 0 0 1 .475-.511h.084a.516.516 0 0 1 .463.511v4.089a.511.511 0 0 0 1.022 0V1.534a.511.511 0 0 1 1.022 0v5.622a1.53 1.53 0 0 1-1.161 1.486 1.379 1.379 0 0 1-.373.048h-2.044a1.39 1.39 0 0 1-.385-.051 1.527 1.527 0 0 1-1.148-1.482V1.535z"/>
      <path fill="#519484" style="fill:var(--color1, #519484)" d="M12.02 3.974a.51.51 0 0 0-.677-.252c-.351.16-.689.341-1.022.531-.015.007-.031.007-.045.015s-.026.026-.041.036a12.778 12.778 0 0 0-4.586 4.59.45.45 0 0 0-.047.051.384.384 0 0 0-.02.06 12.712 12.712 0 0 0 .01 12.689c.005.009.005.02.01.029s.018.023.027.035a12.863 12.863 0 0 0 4.626 4.621c.009.006.014.015.023.021a.407.407 0 0 0 .044.018 12.747 12.747 0 0 0 12.351.192.509.509 0 0 0 .036-.893.51.51 0 0 0-.519-.008 11.737 11.737 0 0 1-5.014 1.365v-1.006a.511.511 0 0 0-1.022 0v1.009a11.674 11.674 0 0 1-4.916-1.32l.503-.871a.513.513 0 0 0-.442-.77.509.509 0 0 0-.443.259l-.502.869a11.84 11.84 0 0 1-3.598-3.598l.869-.502a.511.511 0 1 0-.512-.885l-.869.503a11.676 11.676 0 0 1-1.322-4.915h1.009a.511.511 0 0 0 0-1.022H4.928a11.724 11.724 0 0 1 1.32-4.913l.865.5a.513.513 0 0 0 .77-.442.509.509 0 0 0-.259-.443l-.869-.502a11.763 11.763 0 0 1 3.597-3.599l.503.869a.511.511 0 1 0 .885-.512l-.5-.869c.174-.09.347-.182.526-.265a.51.51 0 0 0 .252-.674zM27.239 21.559a.512.512 0 0 0 .692-.207 12.705 12.705 0 0 0-.179-12.347.469.469 0 0 0-.02-.06.45.45 0 0 0-.047-.051 12.786 12.786 0 0 0-4.589-4.59c-.015-.011-.025-.027-.041-.036a.396.396 0 0 0-.045-.015c-.331-.19-.669-.371-1.022-.531a.511.511 0 0 0-.423.93c.179.082.352.174.526.265l-.5.869a.513.513 0 0 0 .442.77.51.51 0 0 0 .443-.258l.503-.869a11.774 11.774 0 0 1 3.597 3.599l-.869.502a.51.51 0 1 0 .511.885l.865-.5a11.71 11.71 0 0 1 1.32 4.909H27.4a.511.511 0 0 0 0 1.022h1.006a11.647 11.647 0 0 1-1.374 5.022.512.512 0 0 0 .207.692z"/>
    </symbol>
    <symbol id="icon-plate" viewBox="0 0 33 32">
      <path fill="#eaffe2" style="fill:var(--color4, #eaffe2)" d="M32 16c0 8.837-7.163 16-16 16S0 24.837 0 16 7.163 0 16 0s16 7.163 16 16z"/>
      <path fill="#519484" style="fill:var(--color1, #519484)" d="M16.386 7.782c.272-.56.501-1.041.739-1.522.19-.382.363-.775.587-1.138.356-.58.94-.806 1.577-.96.5-.121 1.013-.256 1.465-.488 1.044-.536 1.971-.389 2.74.506.181.213.387.41.588.606.144.139.272.136.438-.012.396-.362.881-.52 1.405-.627a4.83 4.83 0 0 0 1.306-.442c1.104-.591 2.026-.426 2.846.523.275.328.605.605.976.819.833.452 1.376 1.109 1.41 2.049.047 1.056.173 2.107.377 3.144.173.918-.181 1.71-.647 2.491a22.716 22.716 0 0 0-1.341 2.611c-.181.418-.13.929-.19 1.399-.266 2.09-.491 4.187-.81 6.269-.463 3.018-2.768 5.369-5.778 5.974-.265.052-.363.148-.356.416.016.417.008.834 0 1.251-.006.452-.197.65-.641.65-3.924.004-7.847.004-11.771 0-.454 0-.645-.196-.652-.638s-.01-.858 0-1.286c.005-.228-.063-.335-.309-.386-3.24-.672-5.485-3.119-5.898-6.402-.281-2.247-.567-4.495-.856-6.742-.067-.524.064-.682.808-.855-.206-.484-.336-1.001-.62-1.413-.95-1.381-.934-2.703 0-4.087.299-.444.454-1.006.587-1.537.322-1.258 1.077-2.067 2.349-2.361a6.389 6.389 0 0 0 1.996-.825c1.128-.712 2.273-.687 3.391.03a5.89 5.89 0 0 0 1.871.777c1.094.256 1.929.828 2.278 1.953.039.087.083.172.133.254zM4.771 16.175c.006.117.006.181.015.249.255 2.034.529 4.068.761 6.104a6.248 6.248 0 0 0 6.17 5.527c3.651.01 7.301.01 10.952 0 2.994-.007 5.592-2.148 6.09-5.091.295-1.743.463-3.507.686-5.262.064-.499.122-.994.186-1.527H4.771zm9.142-3.782c.454-.386.848-.814 1.33-1.107.368-.222.446-.418.38-.82-.124-.747-.06-1.508-.29-2.26-.261-.854-.739-1.4-1.621-1.579a6.147 6.147 0 0 1-2.178-.904c-.773-.509-1.553-.502-2.32.013a5.961 5.961 0 0 1-2.152.894c-.895.181-1.437.718-1.62 1.609a5.922 5.922 0 0 1-.896 2.139c-.524.777-.479 1.537-.012 2.345.341.589.564 1.245.849 1.868.082.154.173.304.272.447.034-.164.099-.328.099-.492.001-1.891 1.242-3.595 3.026-4.142 1.878-.577 3.845.102 4.938 1.706.074.108.15.217.194.283zm15.698-3.744c.159.226.284.427.433.607.173.212.124.339-.091.484-.623.411-1.236.84-1.849 1.266-.26.181-.44.784-.272 1.026.564.814.845 1.79.8 2.779a.298.298 0 0 0 .164.235c.602.162.946.005 1.25-.547.065-.118.112-.247.174-.366.356-.677.68-1.373 1.081-2.022.387-.627.595-1.28.424-1.989a11.171 11.171 0 0 1-.322-2.676c0-.551-.176-1.054-.714-1.331a5.197 5.197 0 0 1-1.505-1.204c-.521-.584-.726-.575-1.452-.222-.454.221-.939.437-1.43.495-.826.098-1.248.553-1.558 1.26s-.691 1.363-1.063 2.031c-.243.437-.497.862-.499 1.381 0 .412.041.447.448.385a4.232 4.232 0 0 1 2.844.552c.081.046.164.09.246.131a31.561 31.561 0 0 0-1.356-2.042c-.126-.181-.159-.296.058-.434.817-.519.57-.564 1.12.203.119.165.238.331.344.504.041.082.072.167.093.256l.137-.112c.115-.608.234-1.216.343-1.825.133-.748.128-.74.886-.573.246.054.31.165.263.401-.124.619-.235 1.24-.348 1.861-.021.114-.025.23-.047.437.51-.349.944-.641 1.397-.95zM20.52 9.1l.091-.016c.099-.528.2-1.057.296-1.586.154-.849.023-.723.891-.596.247.036.312.146.262.392-.15.739-.278 1.484-.413 2.227-.102.558-.201 1.116-.317 1.764.272-.189.481-.305.65-.463a.485.485 0 0 0 .155-.361c-.181-1.029.173-1.899.726-2.735.328-.495.573-1.045.832-1.582a.37.37 0 0 0-.073-.333c-.308-.313-.652-.589-.96-.904-.544-.557-.755-.571-1.457-.228-.454.221-.937.444-1.427.501-.842.099-1.262.57-1.576 1.287a20.39 20.39 0 0 1-1.068 2.027c-.338.583-.575 1.164-.436 1.86.059.296.173.387.469.382a3.668 3.668 0 0 1 2.497.904l.389.329c.225-.713.358-1.346-.216-1.969-.437-.475-.753-1.06-1.139-1.621.235-.165.443-.299.635-.452s.313-.105.439.09c.244.367.502.722.752 1.081l-.003.002zm-3.33 21.12h4.9c.544 0 .544 0 .544-.524 0-.557 0-.557-.544-.557h-9.695c-.721 0-.622-.09-.654.658-.015.362.121.431.454.429 1.662-.014 3.329-.005 4.996-.005zm.534-15.311.037.114c.104.018.209.03.315.036.465 0 .931-.019 1.394.008.347.021.436-.146.439-.438.009-.971-.358-1.767-1.164-2.317-.907-.622-1.886-.683-2.859-.152-.947.516-1.402 1.347-1.411 2.415 0 .438.055.485.485.486s.884 0 1.326 0c.114-.007.228-.02.34-.04l.032-.117a5.783 5.783 0 0 1-.554-.322c-.079-.057-.175-.205-.151-.271.104-.271.25-.522.377-.772.387.11 1.28.111 1.724.006.108.212.21.437.334.648s.059.323-.15.417a5.602 5.602 0 0 0-.514.3zm-5.454.106a.515.515 0 0 0 .115.037c.17.005.339.009.509.008.442 0 .472-.032.48-.484a3.26 3.26 0 0 0-2.609-3.25 3.279 3.279 0 0 0-1.497.043c-1.478.391-2.523 1.813-2.411 3.314.009.125.1.337.174.347.308.025.616.031.925.016-.035-1.694.76-2.679 2.124-2.691 1.402-.013 2.2.947 2.19 2.66zm9.84.041c-.022-1.627.693-2.615 1.906-2.712.59-.046 1.132.07 1.596.442.718.576.93 1.349.791 2.273h.65c.433 0 .466-.034.478-.452.063-2.141-1.965-3.759-4.055-3.237a3.253 3.253 0 0 0-2.467 3.275c.008.17-.027.394.241.407s.557.005.86.005zm-12.03.004c.227 0 .454-.014.679.005.282.024.381-.128.424-.368a1.078 1.078 0 0 0-.483-1.079 1.043 1.043 0 0 0-1.156-.014 1.088 1.088 0 0 0-.509 1.066c.039.271.16.429.469.395.192-.012.384-.013.576-.005zm14.155 0c.227 0 .454-.014.679.005.282.024.382-.127.425-.367a1.079 1.079 0 0 0-.482-1.085 1.048 1.048 0 0 0-1.156-.016 1.074 1.074 0 0 0-.51 1.067c.039.271.158.43.468.396.192-.01.384-.01.575 0h.001z"/>
      <path fill="#519484" style="fill:var(--color1, #519484)" d="M3.322 7.617c-.281-.077-.553-.149-.822-.227-.243-.071-.147-.24-.103-.385C2.869 5.468 3.839 4.37 5.35 3.77c.306-.121.63-.187.941-.303.41-.155.84-.287 1.211-.511 1.929-1.165 3.835-1.153 5.775-.004.505.299 1.103.447 1.664.652 1.033.378.9.181.448 1.164a.775.775 0 0 1-.1.121c-.907-.379-1.88-.521-2.738-1.063-1.452-.92-2.949-.841-4.433.027a6.543 6.543 0 0 1-1.584.665c-1.551.417-2.658 1.275-3.103 2.859a1.987 1.987 0 0 1-.109.24zM1.391 9.372l.59-1.07c.293.162.554.292.796.452.054.035.064.165.061.249 0 .06-.061.117-.091.181-.448.769-.547.783-1.356.189zM28.113 19.682c-.153 1.121-.257 2.143-.438 3.152-.368 2.04-1.959 3.616-4.006 4.033-.382.078-.436.04-.483-.339-.075-.623-.075-.623.534-.788.764-.21 1.449-.639 1.97-1.234s.855-1.329.961-2.111c.118-.904.236-1.808.339-2.717.031-.271.132-.389.415-.315.122.026.246.04.371.042.244.017.4.099.338.278zM22.09 26.451c0 .523 0 .523-.574.522-.517 0-.517 0-.516-.579 0-.506 0-.506.591-.505.5.001.5.001.5.562z"/>
    </symbol>
    <symbol id="icon-menu" viewBox="0 0 29 32">
      <path fill="#eaffe2" style="fill:var(--color4, #eaffe2)" d="M29.44 16c0 8.13-6.59 14.72-14.72 14.72S0 24.13 0 16 6.59 1.28 14.72 1.28 29.44 7.87 29.44 16z"/>
      <path fill="#519484" style="fill:var(--color1, #519484)" d="M5.395 15.97V2.361C5.395.865 6.285 0 7.823 0h13.792c1.539 0 2.427.864 2.427 2.362 0 9.094-.002 18.189-.006 27.283 0 1.479-.893 2.353-2.405 2.354H7.805c-1.51 0-2.404-.877-2.404-2.354V15.969h-.007zm17.574.033h-.006V2.295c0-.835-.425-1.248-1.289-1.248H7.781c-.893 0-1.306.398-1.306 1.26 0 9.127-.002 18.254-.006 27.381 0 .862.416 1.272 1.294 1.272h13.894c.905 0 1.313-.4 1.313-1.287V16.002h-.001zM26.234 22.978c0 1.99-.007 3.979.006 5.97 0 .308-.092.403-.406.391-.78-.029-.665.089-.665-.664-.004-3.879-.004-7.757 0-11.636 0-.485 0-.487.502-.485.633 0 .563-.063.564.557.001 1.955.001 3.91-.002 5.866z"/>
      <path fill="#519484" style="fill:var(--color1, #519484)" d="M14.682 17.056H9.469c-.6 0-.774-.17-.775-.756s-.005-1.177 0-1.766c0-.454.205-.648.676-.648h10.701c.466 0 .666.199.67.654.006.611.005 1.222 0 1.833 0 .495-.198.682-.712.683h-5.348zm0-1.038c1.44 0 2.878.004 4.318 0 .769 0 .669.097.676-.651.005-.446 0-.446-.444-.446h-8.739c-.839 0-.701-.12-.732.7-.014.338.121.404.436.401 1.492-.012 2.988-.004 4.484-.004h.001zM14.724 11.72c-1.876 0-3.75-.007-5.628.006-.316 0-.415-.089-.403-.394.03-.764-.091-.652.679-.645.322 0 .464-.065.542-.409.469-2.06 1.792-3.318 3.911-3.773.286-.061.366-.161.366-.434-.012-.766 0-.761.789-.735.201.006.286.062.284.267-.005.267-.074.604.063.772s.5.15.758.231c1.869.583 3.03 1.805 3.449 3.67.07.307.171.423.507.412.714-.025.702-.005.712.677 0 .276-.084.356-.366.356-1.893-.006-3.781-.001-5.663-.001zm3.813-1.07c-.226-1.209-.83-2.122-1.9-2.698-1.42-.766-2.835-.688-4.164.211-.876.593-1.387 1.426-1.555 2.487h7.619zM15.816 19.221c1.521 0 3.041.006 4.562-.005.282 0 .38.077.37.356-.028.813.104.683-.712.684-2.904.006-5.808 0-8.712.01-.344 0-.457-.083-.442-.426.035-.713-.081-.616.646-.617 1.429-.005 2.858-.002 4.287-.002zM15.833 21.356c1.509 0 3.018.007 4.527-.006.297 0 .402.074.39.373-.032.787.101.667-.694.668-2.892.005-5.784.005-8.677 0-.487 0-.489 0-.487-.468.005-.644-.072-.568.585-.569 1.451-.001 2.904.002 4.355.002zM15.853 23.491c1.509 0 3.018.006 4.527-.005.284 0 .378.082.366.356-.028.808.104.68-.714.682-2.904.005-5.807 0-8.711.01-.348 0-.457-.089-.439-.428.034-.713-.081-.614.648-.616 1.443-.003 2.884.001 4.323.001zM15.854 25.626c1.509 0 3.018.006 4.526-.005.285 0 .378.083.366.356-.027.807.105.68-.714.681-2.904.006-5.807 0-8.711.011-.348 0-.457-.089-.438-.43.034-.708-.083-.612.648-.615 1.442-.002 2.883.002 4.322.002zM13.594 3.185c-.584-.008-.509.061-.509-.569 0-.554-.059-.478.599-.478.549 0 .475-.053.476.566.001.547.054.474-.565.481zM15.835 2.139c.584.007.52-.058.52.526s.073.52-.59.521c-.563 0-.48.058-.486-.591-.006-.456-.001-.456.556-.456zM9.763 19.724c-.006.593.061.535-.549.535-.588 0-.51.048-.515-.569 0-.469 0-.469.586-.468.477-.001.477-.001.477.502zM9.272 21.356c.559 0 .488-.036.49.561 0 .543.039.474-.576.475-.569 0-.485.041-.49-.593-.004-.445 0-.445.576-.444zM8.696 23.984c0-.493 0-.493.56-.493.508 0 .509 0 .507.544 0 .562.048.488-.595.493-.472.003-.472 0-.472-.544zM9.256 25.626c.508 0 .509 0 .507.544 0 .563.046.488-.595.492-.473 0-.473 0-.472-.577.001-.46.001-.46.56-.459zM14.186 29.332c0-.503 0-.503.549-.503.518 0 .52 0 .517.535 0 .569.05.499-.583.503-.483.002-.483-.001-.483-.534z"/>
    </symbol>
    <symbol id="icon-banana" viewBox="0 0 42 32">
      <path fill="#e0b6a8" style="fill:var(--color5, #e0b6a8)" d="M3.841 22.843c.389.593.823 1.115 1.43 1.732.565.57 1.162 1.108 1.788 1.61a25.098 25.098 0 0 0 4.001 2.668c3.44 1.844 7.327 2.885 11.237 2.862 6.591-.038 13.161-3.177 17.095-8.466 2.155-2.9 3.523-6.75 2.28-10.143-.481-1.314-1.322-2.471-1.816-3.78a7.806 7.806 0 0 1-.427-3.694c.074-.601.178-1.151.206-1.756.031-.694.102-1.386.214-2.072.056-.345.194-.762.54-.815.362-.055.632.376.603.742-.048.59-.571 1.039-1.123 1.253s-1.155.258-1.72.432c-1.188.366-1.691 1.29-1.773 2.45-.278 3.924-1.932 7.737-4.609 10.619s-6.357 4.813-10.249 5.379c-2.624.381-5.32-.004-7.86-.697-2.014-.55-4.539-1.29-7.869-.974-.988.094-2.444.325-2.643 1.064-.1.37.166.775.697 1.585z"/>
      <path fill="#4a5b51" style="fill:var(--color6, #4a5b51)" d="M1.564 19.819a.825.825 0 0 0 .518.824.82.82 0 0 0 .339.059c.44-.018.78-.4.843-.818.142-.923-.79-1.581-1.636-1.299-.929.31-1.236 1.418-.859 2.261.181.404.494.73.807 1.035.358.349.694.717 1.045 1.074 3.057 3.112 6.938 5.425 11.146 6.581a22.393 22.393 0 0 0 11.767.05c3.649-.985 7.067-2.895 9.738-5.581s4.899-6.477 4.357-10.399c-.142-1.035-.52-1.989-.965-2.928-.472-.996-.97-1.978-1.183-3.069-.224-1.144-.118-2.257.095-3.392.106-.565.161-1.132.232-1.701.067-.538.129-1.112.293-1.63.045-.142.13-.376.302-.401.16-.024.26.159.296.287.117.415-.249.808-.569 1.008-.854.531-1.956.333-2.838.818-.694.382-1.123 1.073-1.295 1.833-.1.442-.129.9-.206 1.347-.086.498-.194.991-.324 1.48-1.013 3.817-3.339 7.257-6.555 9.56-3.368 2.411-7.562 3.598-11.689 3.117a21.664 21.664 0 0 1-3.381-.693c-1.094-.309-2.166-.676-3.275-.934a28.346 28.346 0 0 0-3.326-.567c-1.014-.112-2.074-.222-3.094-.13-.813.073-1.633.326-2.106 1.038-.173.261.246.504.419.245.458-.689 1.383-.808 2.144-.821 1.067-.02 2.147.082 3.203.222 1.11.148 2.21.363 3.293.644 1.077.278 2.125.653 3.201.931 2.128.548 4.345.821 6.537.569A17.69 17.69 0 0 0 34.329 5.451c.113-.779.192-1.574.801-2.144.72-.676 1.757-.566 2.641-.84.738-.228 1.6-.897 1.407-1.774-.081-.37-.385-.717-.79-.693-.433.026-.666.438-.772.81-.304 1.064-.305 2.196-.509 3.279-.207 1.098-.32 2.166-.158 3.279.157 1.075.579 2.059 1.045 3.032.443.925.884 1.846 1.087 2.858.374 1.869-.007 3.823-.76 5.549-1.501 3.444-4.388 6.222-7.597 8.094a21.905 21.905 0 0 1-10.559 2.971c-4.126.08-8.228-1.067-11.803-3.105a24.72 24.72 0 0 1-5.186-3.941c-.363-.36-.7-.747-1.067-1.103-.305-.298-.636-.589-.845-.967s-.245-.85-.038-1.237c.194-.363.602-.592 1.015-.501a.714.714 0 0 1 .542.812c-.036.178-.171.364-.363.386-.242.028-.386-.178-.372-.399.019-.312-.466-.311-.485 0l.001.001z"/>
      <path fill="#4a5b51" style="fill:var(--color6, #4a5b51)" d="M17.088 25.137A17.48 17.48 0 0 0 35.52 16.63c.155-.271-.264-.516-.419-.244a17.144 17.144 0 0 1-5.23 5.654 17.02 17.02 0 0 1-12.655 2.631c-.305-.057-.435.41-.129.467z"/>
    </symbol>
    <symbol id="icon-bottle" viewBox="0 0 32 32">
      <path fill="#bacea3" style="fill:var(--color7, #bacea3)" d="M16.098.48C24.583.41 31.917 7.488 31.81 16.426c-.111 8.46-7.158 15.616-15.901 15.482-4.344-.064-8.078-1.655-11.095-4.773-3.096-3.2-4.565-7.067-4.437-11.534C.606 7.375 7.553.398 16.098.48zm4.024 10.602-.03-.055c1.403-1.395 4.107-4.03 5.517-5.424C20.104.602 11.05.489 5.474 6.689c-5.303 5.892-4.432 14.284.029 19.04 1.271-1.23 4.494-4.537 5.833-5.74l.025.105c.086.477 0 .954.07 1.428.003.035-.001.07-.011.103s-.028.064-.051.09c-.334.346-2.509 2.7-2.857 3.035-.67.662-1.339 1.321-2.018 1.987 5.415 4.915 14.105 5.135 19.715-.577 5.642-5.74 5.178-14.332.411-19.549-.032.05-.067.098-.105.143-1.127 1.127-4.59 4.576-5.714 5.703a.213.213 0 0 1-.25.068z"/>
      <path fill="#bacea3" style="fill:var(--color7, #bacea3)" d="M13.786 4.129h4.535c.637.789.58 1.627.277 2.403-.368.934-.264 1.775.179 2.619.307.587.703 1.143.912 1.761.287.848.602 1.741.618 2.621.068 3.648.036 7.299.027 10.949 0 1.607-.473 2.085-2.052 2.096-1.495.009-2.988.009-4.48 0-1.443-.013-1.953-.502-1.964-1.937-.014-3.733-.046-7.467.025-11.197.018-.877.357-1.764.655-2.612.2-.579.566-1.1.857-1.65.446-.841.579-1.684.2-2.614a2.538 2.538 0 0 1 .211-2.438zm-.922 11.349c1.057.555 1.911.264 2.719-.343.948-.714 1.955-1.239 3.196-1.121.169-.006.336-.032.498-.079a3.902 3.902 0 0 0-.452-2.766c-.686-1.25-1.507-2.468-1.345-4.024-1-.141-1.88-.218-2.816.059.12 1.219-.28 2.257-.912 3.187-1.05 1.552-1.075 3.248-.889 5.087zm4.509.178.104.339a4.38 4.38 0 0 0 .505-.2.932.932 0 0 0-.096-.282 3.924 3.924 0 0 0-.512.143z"/>
      <path fill="#4a5b51" style="fill:var(--color6, #4a5b51)" d="m15.729.111-.003.325h.006l-.003-.325zm15.712 15.946.325.004-.325-.004zM15.54 31.539l.005-.325-.005.325zM4.445 26.766zM.008 15.232l.325.009-.325-.009zm19.715-4.575-.229-.231-.174.173.118.215.285-.156zm5.517-5.424.229.231.244-.241-.254-.231-.219.241zM5.105 6.319zm.029 19.04-.237.223.226.241.238-.23-.226-.234zm5.833-5.74.316-.077-.129-.529-.405.364.218.242zm.025.105.32-.058v-.001l-.32.058zm.07 1.429.324-.031-.001-.008-.001-.008-.322.047zm-.063.192.234.226.005-.005.005-.006-.244-.215zm-2.857 3.036-.226-.234-.003.003.229.231zm-2.017 1.987-.228-.232-.246.242.255.232.219-.241zm19.715-.577zm.411-19.549.24-.22-.288-.315-.228.361.275.174zm-.106.143.23.23.009-.009.008-.01-.247-.212zm-5.713 5.703-.23-.23-.015.015-.013.016.258.199zM15.732.436c8.304-.068 15.489 6.862 15.384 15.617l.651.008c.109-9.122-7.375-16.347-16.04-16.275l.005.651zm15.384 15.616c-.108 8.284-7.012 15.292-15.571 15.161l-.01.651c8.928.137 16.119-7.168 16.232-15.803l-.651-.009zM15.544 31.213c-4.259-.063-7.91-1.619-10.866-4.674l-.468.453c3.079 3.181 6.895 4.806 11.324 4.872l.01-.651zM4.679 26.54C1.645 23.405.207 19.623.333 15.241l-.651-.019c-.131 4.553 1.37 8.506 4.528 11.77l.468-.453zM.333 15.241C.557 7.189 7.361.356 15.726.436l.006-.651C7.006-.299-.084 6.823-.318 15.223l.651.018zm19.706-4.685-.03-.055-.571.313.03.055.571-.313zm-.087.332c1.405-1.396 4.101-4.024 5.517-5.424l-.458-.463c-1.405 1.389-4.116 4.032-5.518 5.425l.459.462zm5.507-5.896C19.829-.123 10.567-.24 4.863 6.101l.484.435C10.795.479 19.642.587 25.021 5.474l.438-.482zM4.863 6.101c-5.425 6.027-4.534 14.611.033 19.481l.475-.445c-4.354-4.643-5.205-12.843-.024-18.6l-.484-.435zm.497 19.492c1.289-1.247 4.489-4.532 5.824-5.732l-.435-.484c-1.343 1.207-4.588 4.536-5.842 5.748l.453.468zm5.291-5.897.01.042.007.027.004.017.64-.116-.012-.054-.007-.03-.01-.041-.632.154zm.021.086c.037.205.038.414.036.655-.002.231-.007.496.032.764l.644-.094c-.03-.208-.027-.419-.025-.664a4.122 4.122 0 0 0-.046-.775l-.641.115zm.066 1.401a.065.065 0 0 1 .003-.028l.619.201a.597.597 0 0 0 .026-.234l-.648.062zm.003-.028a.077.077 0 0 1 .014-.025l.489.43a.571.571 0 0 0 .116-.205l-.619-.201zm.024-.036c-.351.364-2.504 2.695-2.848 3.027l.452.469c.352-.339 2.549-2.715 2.865-3.044l-.469-.452zm-2.851 3.03c-.669.662-1.338 1.321-2.017 1.986l.456.465c.679-.666 1.349-1.325 2.019-1.988l-.458-.463zm-2.008 2.46c5.538 5.026 14.427 5.254 20.166-.59l-.464-.456c-5.481 5.58-13.971 5.368-19.264.564l-.437.482zm20.166-.59c5.772-5.872 5.294-14.661.419-19.997l-.48.439c4.659 5.098 5.11 13.493-.402 19.102l.464.456zm-.096-19.951a.885.885 0 0 1-.077.105l.495.423c.049-.057.093-.117.133-.181l-.55-.348zm-.061.087c-1.125 1.125-4.591 4.577-5.714 5.703l.461.46c1.123-1.127 4.585-4.574 5.713-5.702l-.46-.46zm-5.741 5.734a.108.108 0 0 1 .059-.039l.17.628a.54.54 0 0 0 .286-.191l-.515-.397zm.059-.039a.115.115 0 0 1 .071.004l-.244.603a.54.54 0 0 0 .344.02l-.17-.628z"/>
      <path fill="none" stroke="#4a5b51" style="stroke:var(--color6, #4a5b51)" stroke-width=".325" d="M19.165 10.595a5.157 5.157 0 0 0-.407-.864 19.843 19.843 0 0 0-.171-.296 13.73 13.73 0 0 1-.325-.578c-.462-.88-.573-1.771-.186-2.754.283-.723.334-1.471-.205-2.181h-4.367a2.375 2.375 0 0 0-.151 2.211l.002.004c.401.984.257 1.878-.207 2.751-.093.175-.195.352-.296.524-.058.099-.115.198-.169.294a5.024 5.024 0 0 0-.382.809v.001l-.069.197c-.28.793-.561 1.585-.577 2.365-.061 3.179-.046 6.361-.032 9.545l.007 1.647c.005.706.135 1.131.396 1.387s.695.382 1.406.388l-.001.163c1.491.009 2.985.009 4.48 0l1.253-15.614zm0 0 .03.088c.281.827.564 1.663.579 2.484.055 2.959.044 5.919.033 8.881l-.007 2.064c0 .799-.12 1.26-.387 1.533s-.719.395-1.502.401l1.254-15.451zm-6.832 4.53.009.087.077.041c.557.293 1.071.367 1.557.281.481-.085.921-.326 1.336-.637.936-.705 1.902-1.201 3.083-1.089l.011.001h.011a2.22 2.22 0 0 0 .537-.085l.095-.027.02-.096a4.066 4.066 0 0 0-.469-2.879c-.08-.146-.161-.29-.242-.434-.622-1.108-1.22-2.171-1.082-3.493l.016-.156-.155-.022c-1.003-.141-1.913-.223-2.885.064l-.129.038.013.134c.115 1.171-.267 2.17-.885 3.08-1.084 1.601-1.103 3.347-.916 5.194zm4.617.009-.147.052.046.149.152.498.158-.051c.179-.058.354-.128.524-.207l.112-.053-.021-.122a1.115 1.115 0 0 0-.113-.332l-.057-.107-.119.025a4.089 4.089 0 0 0-.533.149z"/>
    </symbol>
    <symbol id="icon-plant" viewBox="0 0 32 32">
      <path fill="#bacea3" style="fill:var(--color7, #bacea3)" d="M16.287.37C24.77.3 32.106 7.378 31.999 16.316c-.118 8.46-7.167 15.616-15.916 15.478-4.342-.064-8.076-1.655-11.093-4.773C1.898 23.825.428 19.958.549 15.49.794 7.264 7.736.287 16.286.369zM6.69 26.634c5.414 4.915 14.105 5.135 19.715-.577 5.642-5.74 5.178-14.332.409-19.549-.032.05-.067.098-.105.143a1196.583 1196.583 0 0 0-3.38 3.378.213.213 0 0 1-.25.068 18.864 18.864 0 0 0-.975-.257c-.161-.041-.323-.071-.486-.105l-.03-.055 4.21-4.187C20.292.492 11.239.379 5.661 6.579c-5.301 5.892-4.432 14.284.029 19.04 1.271-1.23 2.482-2.523 3.821-3.726l.025.104c.084.478.178.955.248 1.428.003.035-.001.07-.011.103s-.028.064-.051.09c-.333.345-.672.687-1.016 1.025-.668.668-1.339 1.327-2.016 1.993z"/>
      <path fill="none" stroke="#4a5b51" style="stroke:var(--color6, #4a5b51)" stroke-width=".325" d="M15.916.163h.003c8.392-.069 15.654 6.935 15.548 15.781-.117 8.372-7.094 15.454-15.751 15.318-4.3-.064-7.992-1.637-10.979-4.723C1.676 23.375.222 19.551.342 15.126.584 6.987 7.455.082 15.915.163zm-9.71 25.986-.123.121.127.116c5.475 4.971 14.266 5.194 19.941-.583 5.707-5.806 5.236-14.497.413-19.773l-.144-.157-.114.18a1.038 1.038 0 0 1-.087.119c-1.131 1.126-2.256 2.25-3.376 3.374l-.007.007-.006.008c-.007.009-.017.015-.027.018s-.022.002-.033-.002l-.007-.003-.008-.002c-.325-.096-.654-.18-.982-.259-.088-.023-.178-.042-.266-.061l4.157-4.135-.127-.115C19.968-.056 10.812-.171 5.17 6.099c-5.362 5.96-4.483 14.447.031 19.26l.113.121.119-.115c.464-.449.917-.903 1.37-1.357.731-.733 1.461-1.465 2.235-2.173l.049.27c.059.325.118.646.165.967.001.012-.001.023-.004.034s-.009.021-.017.03c-.331.343-.668.682-1.01 1.018l-.001.001c-.58.58-1.163 1.153-1.75 1.731l-.265.261z"/>
      <path fill="#bacea3" style="fill:var(--color7, #bacea3)" d="M15.921 4.06c.828.78 1.48 1.669 1.735 2.791.398 1.757.052 3.346-1.132 4.728-.145.179-.311.325-.462.489-.109.118-.205.113-.321 0a5.833 5.833 0 0 1-1.402-2.025 5.262 5.262 0 0 1-.295-2.644c.164-1.359.843-2.439 1.852-3.332.002-.004.011-.004.025-.007zM16.094 15.55a7.464 7.464 0 0 1 .418-2.4c.618-1.619 1.816-2.5 3.516-2.694a7.819 7.819 0 0 1 1.325.032c.236.014.298.1.295.357-.013 1.607-.628 2.907-1.916 3.88a8.31 8.31 0 0 1-3.087 1.378 3.326 3.326 0 0 1-.312.066c-.189.025-.239-.02-.253-.211a1.822 1.822 0 0 1 0-.209c-.002-.073.011-.136.016-.2zM20.599 20.924c.246.014.491.027.736.045s.307.089.314.334a5.171 5.171 0 0 1-.239 1.591c-.33 1.128-1.071 1.932-2.034 2.562s-2.01.968-3.108 1.214c-.123.027-.179-.012-.179-.141.014-.373.018-.746.048-1.119a5.878 5.878 0 0 1 .582-2.244c.744-1.428 1.964-2.128 3.546-2.227h.336l-.002-.014zM11.155 10.399c1.25.016 2.337.405 3.234 1.289.6.593.893 1.336 1.093 2.143.153.674.233 1.363.237 2.055 0 .262-.066.325-.316.268-1.291-.289-2.484-.755-3.517-1.58a4.429 4.429 0 0 1-1.685-3.021 7.176 7.176 0 0 1-.061-.732c0-.214.064-.293.271-.325.246-.039.496-.064.745-.096zM15.708 26.075v.48c0 .1-.054.136-.159.114a8.521 8.521 0 0 1-3.633-1.573c-1.041-.798-1.577-1.866-1.716-3.15-.027-.248-.021-.502-.034-.752a.186.186 0 0 1 .04-.132.177.177 0 0 1 .121-.064 4.56 4.56 0 0 1 2.623.241c1.371.536 2.175 1.575 2.5 2.984.139.605.2 1.23.296 1.844l-.038.007zM16.076 20.792c.013-.823.16-1.638.436-2.414.536-1.448 1.589-2.309 3.084-2.618a5.805 5.805 0 0 1 1.837-.016c.145.016.179.116.179.239a4.685 4.685 0 0 1-.43 2.237c-.37.803-.975 1.387-1.685 1.887-.961.675-2.039 1.05-3.173 1.3-.205.045-.234.021-.245-.179-.002-.15-.002-.295-.002-.437zM11.168 15.689a4.46 4.46 0 0 1 2.882.925c.657.5 1.02 1.193 1.278 1.952.275.837.407 1.714.391 2.594 0 .266 0 .275-.271.223-1.56-.309-2.969-.925-4.098-2.082a4.164 4.164 0 0 1-1.109-2.298c-.049-.3-.08-.603-.095-.907-.013-.27.091-.368.357-.387.139-.013.278-.02.416-.025.077.002.157.005.248.005z"/>
      <path fill="none" stroke="#4a5b51" style="stroke:var(--color6, #4a5b51)" stroke-width=".325" d="M16.027 11.013c1.148-1.34 1.484-2.876 1.097-4.586-.235-1.034-.822-1.869-1.588-2.613-.933.855-1.55 1.876-1.703 3.144l-.001.004a5.093 5.093 0 0 0 .285 2.561 5.648 5.648 0 0 0 1.362 1.966l.002.002a.175.175 0 0 0 .051.039l.496-.517zm0 0-.003.003c-.067.083-.14.159-.218.238l-.057.057c-.06.06-.122.122-.181.186l.458-.485zm-.501.52h.001-.001zM15.882 15.104l.001-.006v-.006a7.314 7.314 0 0 1 .408-2.345c.3-.784.736-1.382 1.298-1.808s1.255-.685 2.079-.78a7.65 7.65 0 0 1 1.293.032h.008c.051.003.082.01.101.016.016.006.019.01.02.011.005.007.023.039.022.165v.001c-.012 1.558-.606 2.809-1.85 3.75a8.135 8.135 0 0 1-3.025 1.35l-.007.002a2.695 2.695 0 0 1-.294.062.626.626 0 0 1-.059.005.47.47 0 0 1-.008-.065 2.007 2.007 0 0 1 0-.19v-.012a.546.546 0 0 1 .007-.101l.009-.081zM20.411 20.642v-.003c.181.01.359.02.538.033.118.009.137.029.139.03.003.003.021.026.024.144a4.99 4.99 0 0 1-.232 1.539l-.001.003c-.316 1.081-1.026 1.856-1.967 2.472-.933.611-1.953.943-3.034 1.187l.01-.297c.008-.265.016-.525.037-.787v-.004a5.682 5.682 0 0 1 .565-2.18c.715-1.369 1.877-2.041 3.406-2.137h.515zM15.065 15.535h-.001c-1.276-.286-2.443-.744-3.451-1.549l-.002-.001a4.277 4.277 0 0 1-1.624-2.911l-.001-.004a6.785 6.785 0 0 1-.059-.713c0-.096.016-.119.02-.124.003-.004.021-.023.113-.037h.001c.161-.026.322-.045.485-.064l.243-.03c1.209.018 2.25.394 3.11 1.242.568.562.852 1.27 1.049 2.064.151.662.229 1.339.233 2.018a.523.523 0 0 1-.01.122l-.001.002a.504.504 0 0 1-.107-.015zM15.172 25.481l.016-.003a38.216 38.216 0 0 1-.062-.437 14.15 14.15 0 0 0-.209-1.241c-.314-1.363-1.085-2.355-2.4-2.869l-.002-.001a4.385 4.385 0 0 0-2.529-.232l-.008.002-.009.001-.006.002-.005.004-.003.005-.001.006v.008c.005.099.007.192.009.284.004.156.007.305.024.459l5.184 4.011zm0 0v.135m0-.135v.135m0 0v.429m0-.429v.429m0-.001a8.35 8.35 0 0 1-3.531-1.537c-1.001-.768-1.517-1.793-1.652-3.037l5.184 4.574zM21.034 15.445l.006.001a.119.119 0 0 1 .024.005.094.094 0 0 1 .005.017.262.262 0 0 1 .004.055v.01a4.541 4.541 0 0 1-.415 2.16v.001c-.353.768-.933 1.331-1.631 1.822-.936.658-1.992 1.027-3.114 1.274a.594.594 0 0 1-.045.009.328.328 0 0 1-.002-.034c-.002-.147-.002-.289-.002-.431a7.414 7.414 0 0 1 .426-2.36c.515-1.391 1.52-2.215 2.961-2.513a5.643 5.643 0 0 1 1.783-.015zm-5.219 5.36h.001-.001zM10.794 15.392h.006a4.307 4.307 0 0 1 2.777.891l.001.001c.62.472.969 1.129 1.223 1.874.269.819.399 1.678.383 2.54v.081l-.077-.014c-1.537-.304-2.912-.908-4.011-2.035a4.005 4.005 0 0 1-1.065-2.207l-.001-.003a8.266 8.266 0 0 1-.093-.889c-.005-.119.018-.155.03-.168.015-.015.055-.041.177-.05h.003a7.71 7.71 0 0 1 .403-.024l.062.002c.056.002.119.004.185.004z"/>
    </symbol>
    <symbol id="icon-phone" viewBox="0 0 35 32">
      <path fill="#e0b6a8" style="fill:var(--color5, #e0b6a8)" d="M27.207 19.679c-.682-.676-1.505-1.037-2.378-1.037-.865 0-1.695.355-2.406 1.03L20.2 21.78c-.183-.094-.366-.181-.542-.268a8.777 8.777 0 0 1-.696-.355c-2.083-1.258-3.975-2.897-5.79-5.018-.879-1.057-1.47-1.947-1.9-2.85.577-.502 1.112-1.024 1.632-1.525.197-.187.394-.381.591-.569 1.477-1.405 1.477-3.225 0-4.63l-1.921-1.827a26.134 26.134 0 0 1-.654-.636 31.54 31.54 0 0 0-1.323-1.244c-.682-.642-1.498-.984-2.357-.984s-1.688.341-2.392.984l-.014.013-2.392 2.295c-.901.856-1.414 1.9-1.527 3.111-.169 1.954.436 3.774.9 4.964 1.14 2.924 2.842 5.634 5.382 8.537a32.923 32.923 0 0 0 11.024 8.209c1.618.729 3.778 1.592 6.191 1.74.148.007.303.013.443.013 1.625 0 2.99-.555 4.059-1.659.007-.013.021-.02.028-.033.366-.422.788-.803 1.231-1.211.303-.274.612-.562.915-.863.697-.689 1.062-1.492 1.062-2.315 0-.83-.373-1.626-1.083-2.295l-3.862-3.687zm2.519 7.045c-.007 0-.007.007 0 0-.274.281-.556.535-.858.816-.457.415-.922.85-1.358 1.338-.711.723-1.548 1.064-2.645 1.064-.106 0-.218 0-.324-.007-2.089-.127-4.031-.903-5.487-1.566A31.074 31.074 0 0 1 8.67 20.635c-2.399-2.75-4.003-5.292-5.065-8.022-.654-1.666-.893-2.964-.788-4.188.07-.783.387-1.432.971-1.987l2.399-2.281c.345-.308.711-.475 1.069-.475.443 0 .802.254 1.027.468l.021.02c.429.381.837.776 1.266 1.198.218.214.443.428.668.649l1.921 1.827c.746.709.746 1.365 0 2.074-.204.194-.401.388-.605.575a36.278 36.278 0 0 1-1.766 1.633c-.014.013-.028.02-.035.033-.605.575-.492 1.137-.366 1.519l.021.06c.499 1.151 1.203 2.235 2.272 3.526l.007.007c1.942 2.275 3.989 4.048 6.247 5.406.288.174.584.314.865.448.253.12.493.234.697.355.028.013.056.033.084.047.239.114.464.167.697.167.584 0 .95-.348 1.069-.462l2.406-2.288c.239-.227.619-.502 1.062-.502.436 0 .795.261 1.013.488a.166.166 0 0 0 .014.013l3.876 3.687c.725.682.725 1.385.007 2.094zM18.875 7.582c1.843.294 3.518 1.124 4.854 2.395s2.202 2.864 2.519 4.616c.077.442.478.749.936.749.056 0 .105-.007.162-.013.521-.08.865-.549.781-1.044-.38-2.121-1.435-4.054-3.046-5.587s-3.644-2.536-5.875-2.897c-.521-.08-1.006.248-1.097.736s.246.963.767 1.044zM34.158 14.025c-.626-3.493-2.357-6.671-5.016-9.2S23.141.65 19.469.055c-.514-.087-.999.248-1.09.736-.085.495.26.957.781 1.044a16.277 16.277 0 0 1 8.646 4.262c2.378 2.261 3.926 5.105 4.481 8.223.077.442.478.749.936.749.056 0 .106-.007.162-.013.513-.074.865-.542.774-1.03z"/>
    </symbol>
  </defs>
</svg>
